<?xml version="1.0" encoding="utf-8"?>
<!-- Generator: Adobe Illustrator 21.1.0, SVG Export Plug-In . SVG Version: 6.00 Build 0)  -->
<svg version="1.1" id="Layer_1" xmlns="http://www.w3.org/2000/svg" xmlns:xlink="http://www.w3.org/1999/xlink" x="0px" y="0px"
	 viewBox="0 0 720 720" style="enable-background:new 0 0 720 720;" xml:space="preserve">
<style type="text/css">
	.st0{fill:#2E2A25;}
	.st1{fill:#8A8A8D;}
	.st2{fill:#FFC627;}
	.st3{fill:#009BDE;}
</style>
<g>
	<path class="st0" d="M211.9,510.3h-0.3c-0.3,0-2.8-0.2-3.6,1.1c-0.4,0.6-0.3,1.5,0.3,2.5s1.2,1.4,1.7,1.4c0.1,0,0.2,0,0.4-0.1
		c1.3-0.4,1.7-3.2,1.5-4.5L211.9,510.3z"/>
	<path class="st0" d="M152.8,426.1c0.2,0,0.3,0,0.5-0.1c2-0.7,2.2-5.5,2.2-6.5v-0.4h-0.4c-0.5,0-4.6,0.1-5.5,2.1
		c-0.4,0.9-0.1,2.1,1,3.4C151.3,425.6,152.1,426.1,152.8,426.1z"/>
	<path class="st0" d="M562.8,274c-2-0.9-4.7,0.2-4.8,0.3l-0.2,0.1v0.2c-0.1,1,0.2,1.7,0.8,2.2s1.4,0.6,2.2,0.6
		c1.6,0,3.4-0.6,3.7-0.7l0.4-0.1l-0.1-0.4C564.4,275.2,563.7,274.4,562.8,274z"/>
	<path class="st0" d="M491.6,177.8l0.4-0.1c0.3,0,3.2-0.4,3.9-2c0.3-0.6,0.2-1.3-0.2-2l-0.1-0.1l-0.1-0.1c-0.1,0-1.8-0.8-3,0
		c-0.9,0.6-1.2,1.9-1,3.8L491.6,177.8z"/>
	<path class="st0" d="M565,419h-0.4v0.4c0,1,0.2,5.8,2.2,6.5c0.2,0.1,0.3,0.1,0.5,0.1c0.7,0,1.5-0.5,2.3-1.5c1.1-1.3,1.5-2.5,1-3.4
		C569.6,419.1,565.4,419,565,419z"/>
	<path class="st0" d="M227.9,177.8l0.4,0.1l0.1-0.4c0.2-1.9-0.1-3.2-1-3.8c-1.2-0.9-2.9-0.1-3,0l-0.1,0.1l-0.1,0.1
		c-0.5,0.7-0.5,1.4-0.2,2C224.8,177.3,227.6,177.7,227.9,177.8z"/>
	<path class="st0" d="M311.5,365.6v-12.5l-0.1-0.1c0,0-0.6-0.7-1.7-0.6c-2.5,0.3-5.6,4.3-9.1,11.9c-6.9,14.8-16.3,35-12.2,44.8
		l-34.7,62.7l48.6-26.8v-0.2c0-0.2,2.5-22.5,9.9-22h6.5l12.8-35.9l-7.9-2.2C323.7,383.2,323,378.4,311.5,365.6z"/>
	<path class="st0" d="M159.2,277.5c0.8,0,1.6-0.2,2.2-0.6c0.6-0.5,0.9-1.2,0.8-2.2v-0.2l-0.2-0.1c-0.1,0-2.7-1.2-4.8-0.3
		c-0.9,0.4-1.6,1.1-1.9,2.2l-0.1,0.4l0.4,0.1C155.8,276.9,157.6,277.5,159.2,277.5z"/>
	<path class="st0" d="M508.5,510.3h-0.4v0.4c-0.1,1.3,0.3,4.1,1.5,4.5c0.1,0,0.2,0.1,0.4,0.1c0.6,0,1.2-0.5,1.7-1.4
		c0.6-1,0.7-1.8,0.3-2.5C511.3,510.1,508.8,510.3,508.5,510.3z"/>
	<path class="st0" d="M419.4,364.3c-3.5-7.6-6.6-11.6-9.1-11.9c-1.1-0.1-1.7,0.6-1.7,0.6l-0.1,0.1v12.5c-11.5,12.7-12.2,17.5-12,19
		l-7.9,2.2l12.8,35.9h6.5c0.1,0,0.1,0,0.2,0c7.3,0,9.7,21.8,9.7,22.1v0.2l48.6,26.8l-34.7-62.7C435.7,399.3,426.3,379.1,419.4,364.3
		z"/>
	<path class="st0" d="M360,76.9c-156.1,0-283,127-283,283c0,156.1,127,283,283,283c156.1,0,283-127,283-283S516.1,76.9,360,76.9z
		 M596.5,285.3L596.5,285.3v0.3c1.7,7.6,5,10.1,6.7,11l-4.4,2.4c-8.1,0.6-29.9-4.8-30.1-4.8h-0.1h-0.1c-0.1,0-9.7,0.2-16.7-3
		c-1.7-0.8-3.4-0.8-5.1-0.2c-4.3,1.7-7.1,7.5-7.7,8.7c-24,2.2-43.1,20.5-44.2,21.6c-4,2-14.3-0.8-17.5-3.5c-3.4-2.9-14.3-3-14.8-3
		h-0.2c-2.5,1.1-9.6,4-11.6,3.7c-2.5-0.4-19.9,3.3-23.2,4.1c-0.3-4.8-6-15.5-7.3-17.7c1.4-0.6,6.5-2.8,14-4.6
		c8.7-2.1,15.8,4.2,15.9,4.3c9.6,5.9,16.8-0.2,20.2-3.2c0.7-0.6,1.2-1.1,1.5-1.2c1.9-0.8,9.6-1.7,11.5-1.7
		c1.8,0,50.9-16.8,56.4-18.7l0.3-0.1v-0.3c0.7-6.6,1.7-7.4,1.9-7.5l0.2,0.1l0.2-0.3c2.1-3,17.4-6.6,25.5-8.1
		c2.9,12.2,8.1,18.4,8.4,18.7l0.1,0.1h0.2C593.8,283.4,596.2,284.9,596.5,285.3z M572.9,437.6c10.8,12.4,11.9,18.3,12,19.5
		c-5,2.7-4.5,7.4-4.1,9.1c-3.5-0.1-4.8-0.8-5.1-1c-1-1.5-18.5-28.3-26.1-38.9c-2.9-4-5.7-5.9-8.3-5.7c-2.5,0.2-4.1,2.4-4.6,3.2
		c-1-0.4-4.5-2.2-15-9.5c-10.9-7.6-25.3-7.9-32.1-8.1c-1.3,0-2.4-0.1-3-0.1c-2.7-0.3-10.9-17.1-15.5-27.7l-0.1-0.2l-0.2-0.1
		c-6-1.6-9.9-4.6-16.5-9.5c-1.5-1.2-3.2-2.4-5.1-3.8c-8.5-6.2-14.6-25.9-16-30.8c3.1,2,13,8.3,22.4,11.7c10.5,3.8,12.1,11,12.2,11.7
		c-0.6,4,0.3,7.5,2.6,10.4c5.3,6.8,16.4,8.3,18.1,8.5c2.7,3.5,19.5,11.3,20.2,11.6l41,22.9l0.2,0.1l7.5-5.7
		c17.6,7.4,21.3,12.8,22,15.4c0.4,1.5-0.2,2.3-0.2,2.4C571.3,435,572.5,437.3,572.9,437.6z M558.3,189.2c2.4,0,4.7,0.6,6.7,1.6
		c11.6,3.5,20,14.3,20,27.1c0,15.6-12.7,28.3-28.3,28.3s-28.3-12.7-28.3-28.3c0-15,11.6-27.2,26.4-28.2
		C555.9,189.4,557.1,189.2,558.3,189.2z M477.1,187.4c-3.2-4.5,0.8-9.5,5.5-15.2c1.2-1.5,2.4-3,3.6-4.5c3.6-4.8,5.4-5.4,6.2-5.4
		c0.4,0,0.6,0.3,0.6,0.3l0.1,0.1c6.5,5.6,11,7.8,17.2,8.2c2.8,0.2,5.8-2.3,8.7-4.8c3.8-3.3,7.4-6.3,10.4-3.5
		c4.6,4.4,8.1,5.4,9.4,5.6c-2.1,5.8-25.8,17-37.3,22.5c-3.4,1.6-6.1,2.9-7.4,3.6c-5.9,3.3-3.3,12.2-2.9,13.4
		c-0.6,2.8-3.8,6.4-7.4,10.6c-5.6,6.4-12.5,14.4-12.9,23c-0.6,13.5-5.8,15.7-5.8,15.7c-14.6,2.8-25.1,9.7-25.2,9.7l-0.1,0.1v0.1
		c-2.2,5.8-22.6,27.6-25.5,30.7c-1.8-2-6.8-2.8-7-2.8c-8-0.5-9.7-3.9-9.9-4.6c8.2-18,16.4-22.3,18.2-23c0.8,0.1,3.1-0.2,9.5-1
		c11.9-1.5,12.6-14,12.7-15.5l33.5-47.1C471.6,203.2,481.5,193.6,477.1,187.4z M422.4,96.8c15.6,0,28.3,12.7,28.3,28.3
		s-12.7,28.3-28.3,28.3s-28.3-12.7-28.3-28.3S406.8,96.8,422.4,96.8z M295.5,96.8c15.6,0,28.3,12.7,28.3,28.3s-12.7,28.3-28.3,28.3
		s-28.3-12.7-28.3-28.3S279.9,96.8,295.5,96.8z M190.7,162.7c3-2.9,6.6,0.2,10.4,3.5c2.9,2.5,5.9,5,8.7,4.8
		c6.1-0.4,10.6-2.6,17.2-8.2l0.1-0.1c0,0,0.2-0.3,0.6-0.3c0.8,0,2.6,0.6,6.2,5.4c1.2,1.6,2.4,3.1,3.6,4.5c4.7,5.7,8.8,10.7,5.5,15.2
		c-4.5,6.2,5.5,15.8,5.8,16.1l33.6,47.2c0,1.5,0.8,14,12.7,15.5c6.4,0.8,8.7,1.1,9.5,1c1.8,0.7,10,5,18.2,23
		c-0.3,0.7-1.9,4.1-9.9,4.6c-0.2,0-5.2,0.8-7,2.8c-2.9-3.1-23.3-24.9-25.5-30.7v-0.1l-0.1-0.1c-0.1-0.1-10.6-6.9-25.2-9.7
		c-0.1,0-5.2-2.1-5.9-15.7c-0.4-8.7-7.3-16.6-12.9-23c-3.6-4.1-6.7-7.7-7.4-10.6c0.4-1.2,3-10.1-2.9-13.4c-1.3-0.7-4-2-7.4-3.6
		c-11.5-5.5-35.2-16.6-37.3-22.5C182.5,168.1,186,167.1,190.7,162.7z M159.7,189.7c1.2-0.3,2.4-0.5,3.7-0.5c2.1,0,4.2,0.5,6,1.3
		c12.2,3.2,21.1,14.2,21.1,27.4c0,15.6-12.7,28.3-28.3,28.3S134,233.5,134,217.9C134,203.1,145.3,191,159.7,189.7z M123.5,285.6
		l0.1-0.3l-0.1-0.1c0.3-0.4,2.7-1.9,19.9-2.8h0.2l0.1-0.1c0.2-0.3,5.5-6.5,8.4-18.7c6.7,1.3,23.3,5,25.5,8.1l0.2,0.3l0.2-0.1
		c0.2,0.1,1.2,1,1.9,7.5v0.3l0.3,0.1c5.6,1.9,54.7,18.7,56.4,18.7c1.9,0,9.6,0.9,11.5,1.7c0.3,0.1,0.9,0.6,1.5,1.2
		c3.4,3,10.6,9.1,20.3,3.1c0.1-0.1,7.2-6.4,15.9-4.3c7.5,1.8,12.6,4,14,4.6c-1.3,2.3-7,12.9-7.3,17.7c-3.1-0.7-18.9-4.1-22.7-4.1
		c-0.2,0-0.4,0-0.5,0c-2.1,0.3-9.1-2.6-11.6-3.7h-0.2c-0.5,0-11.4,0-14.8,3c-3.2,2.7-13.5,5.5-17.5,3.5
		c-1.1-1.1-20.2-19.4-44.2-21.6c-0.6-1.3-3.4-7.1-7.7-8.7c-1.7-0.7-3.4-0.6-5.1,0.2c-7.1,3.2-16.6,3-16.7,3h-0.1h-0.1
		c-0.2,0.1-22.1,5.4-30.1,4.8l-4.4-2.4C118.5,295.8,121.8,293.2,123.5,285.6z M135.2,457c0.1-1.2,1.1-7.1,12-19.4
		c0.3-0.3,1.6-2.6-6.3-14.6c0,0-0.6-0.8-0.2-2.3c0.6-2.6,4.4-7.9,22-15.4l7.5,5.7l41.2-23c0.7-0.3,17.5-8.2,20.2-11.6
		c1.7-0.2,12.8-1.7,18.1-8.5c2.3-2.9,3.2-6.4,2.6-10.4c0.1-0.7,1.7-7.8,12.2-11.7c9.5-3.5,19.4-9.7,22.4-11.7
		c-1.4,4.9-7.5,24.5-16,30.8c-1.9,1.4-3.6,2.7-5.1,3.8c-6.6,5-10.5,7.9-16.5,9.5l-0.2,0.1l-0.1,0.2c-4.6,10.5-12.8,27.4-15.5,27.7
		c-0.6,0.1-1.7,0.1-3,0.1c-6.9,0.2-21.2,0.5-32.1,8.1c-10.4,7.3-14,9.1-15,9.5c-0.5-0.9-2.1-3-4.6-3.2c-2.6-0.2-5.4,1.7-8.3,5.7
		c-7.6,10.6-25.1,37.3-26.1,38.9c-0.2,0.2-1.6,0.9-5.1,1C139.6,464.5,140.2,459.7,135.2,457z M91.9,353.9
		c0-15.6,12.7-28.3,28.3-28.3s28.3,12.7,28.3,28.3c0,15.6-12.7,28.3-28.3,28.3C104.6,382.2,91.9,369.5,91.9,353.9z M159.4,526.6
		c-15.6,0-28.3-12.7-28.3-28.3s12.7-28.3,28.3-28.3s28.3,12.7,28.3,28.3S175,526.6,159.4,526.6z M534.3,550.8
		c-0.3,0.7-0.7,1.1-1.2,1.3c-1.3,0.4-3.3-0.7-5.2-1.7c-2.1-1.2-4.1-2.3-5.5-1.5l-0.3,0.2l0.1,0.3c0.4,1.8,1.2,6.4-0.2,7.9L487.9,517
		l-0.3,0.3c-0.3,0.2-30.6,23.9-36.6,25.4c-0.6,0.2-1.3,0.3-1.9,0.5c-5.6,1.5-11.9,3.2-24-2.5c-3.4-1.6-6.8-3.4-10.5-5.4
		c-11.3-6-22.9-12.3-34-11.6h-0.4l1.5,53H338l1.5-52.6v-0.4h-0.4c-11.1-0.7-22.7,5.6-34,11.6c-3.7,2-7.1,3.8-10.5,5.4
		c-12.1,5.7-18.4,4-24,2.5c-0.6-0.2-1.3-0.3-1.9-0.5c-6-1.5-36.3-25.2-36.6-25.4l-0.3-0.3L198,557.2c-1.4-1.5-0.6-6.1-0.2-7.9
		l0.1-0.3l-0.3-0.2c-1.4-0.7-3.4,0.4-5.5,1.5c-1.9,1.1-3.9,2.2-5.2,1.7c-0.5-0.2-0.9-0.6-1.2-1.3c-1.7-3.9,11.4-13,16.5-16.2
		l0.2-0.1l1.6-8.9l-0.1-0.1c-0.1-0.1-7.6-11.4-8.1-16.9c-0.3-4.4,16.8-12.9,23.5-15.8l0.1-0.1l41.6-79.4c29-12.9,18.9-41.3,18-43.8
		l18.4-40.9c6.4-26.8,19.3-28.2,19.4-28.3c7.2-1.1,13-3.7,13.1-3.8l0.1-0.1c13.2-11.8,16.4-30.6,16.4-30.8v-0.2l-0.2-0.2
		c-13.8-13.1-11.8-30.5-11.7-30.7c0-12,3-20.9,9-26.3c7.1-6.5,16.1-5.6,16.2-5.6l0,0l0,0c0.1,0,9.2-0.9,16.4,5.7
		c6,5.4,9,14.2,9,26.3c0,0.2,2,17.5-11.7,30.6l-0.2,0.2v0.2c0,0.2,3.3,19,16.4,30.8l0.1,0.1c0.1,0,5.9,2.7,13.1,3.8
		c0.1,0,13,1.5,19.4,28.3l18.4,40.8c-1,2.5-11,30.9,18,43.8l41.5,79.3l0.1,0.1l0.1,0.1c6.7,2.9,23.8,11.4,23.5,15.8
		c-0.4,5.5-8,16.8-8.1,16.9l-0.1,0.1l1.6,8.9l0.2,0.1C522.9,537.8,536,546.9,534.3,550.8z M558.6,526.6c-15.6,0-28.3-12.7-28.3-28.3
		S543,470,558.6,470s28.3,12.7,28.3,28.3S574.3,526.6,558.6,526.6z M597.8,382.2c-15.6,0-28.3-12.7-28.3-28.3
		c0-15.6,12.7-28.3,28.3-28.3s28.3,12.7,28.3,28.3S613.4,382.2,597.8,382.2z"/>
	<path class="st0" d="M338.4,414.1l-0.4,0.2c-0.1,0-5.4,2.2-3.3,10.2l0.1,0.5l0.5-0.2c0.1,0,6.3-2.7,3.3-10.2L338.4,414.1z"/>
	<path class="st0" d="M382,414.2l-0.4-0.2l-0.2,0.4c-3,7.6,3.3,10.2,3.3,10.2l0.5,0.2l0.1-0.5C387.4,416.4,382.1,414.3,382,414.2z"
		/>
	<path class="st1" d="M567.1,152.9C511.8,97.5,438.2,67.1,360,67.1s-151.8,30.5-207.1,85.8S67.1,281.8,67.1,360s30.5,151.7,85.8,207
		s128.9,85.8,207.1,85.8s151.8-30.5,207.1-85.8s85.8-128.9,85.8-207.1S622.4,208.2,567.1,152.9z M360,643C203.9,643,77,516,77,360
		C77,203.9,204,77,360,77c156.1,0,283,127,283,283S516.1,643,360,643z"/>
	<path class="st2" d="M144.3,465.1c1-1.6,18.5-28.3,26.1-38.9c2.9-4,5.6-5.9,8.3-5.7c2.5,0.2,4.1,2.4,4.6,3.2c1-0.4,4.5-2.2,15-9.5
		c10.9-7.6,25.3-7.9,32.1-8.1c1.3,0,2.4-0.1,3-0.1c2.7-0.3,10.9-17.1,15.5-27.7l0.1-0.2l0.2-0.1c6-1.6,9.9-4.6,16.5-9.5
		c1.5-1.2,3.2-2.4,5.1-3.8c8.5-6.2,14.6-25.9,16-30.8c-3.1,2-13,8.3-22.4,11.7c-10.5,3.8-12.1,11-12.2,11.7c0.6,4-0.3,7.5-2.6,10.4
		c-5.3,6.8-16.4,8.3-18.1,8.5c-2.7,3.5-19.5,11.3-20.2,11.6l-41.2,23l-7.5-5.7c-17.7,7.5-21.4,12.9-22,15.4
		c-0.4,1.5,0.2,2.3,0.2,2.3c8,12,6.7,14.3,6.3,14.6c-10.8,12.3-11.9,18.3-12,19.4c5,2.7,4.5,7.4,4.1,9.1
		C142.7,466,144.1,465.3,144.3,465.1z M149.5,421.2c0.9-2,5.1-2.1,5.5-2.1h0.4v0.4c0,1-0.2,5.8-2.2,6.5c-0.2,0.1-0.3,0.1-0.5,0.1
		c-0.7,0-1.5-0.5-2.3-1.5C149.4,423.3,149.1,422.1,149.5,421.2z"/>
	<path class="st2" d="M151.3,294.1L151.3,294.1h0.1c0.1,0,9.7,0.2,16.7-3c1.7-0.8,3.4-0.8,5.1-0.2c4.3,1.7,7.1,7.5,7.7,8.7
		c24,2.2,43.1,20.5,44.2,21.6c4,2,14.3-0.8,17.5-3.5c3.4-2.9,14.3-3,14.8-3h0.2c2.5,1.1,9.6,4,11.6,3.7c0.1,0,0.3,0,0.5,0
		c3.7,0,19.5,3.4,22.7,4.1c0.3-4.8,6-15.5,7.3-17.7c-1.4-0.6-6.5-2.8-14-4.6c-8.7-2.1-15.8,4.2-15.9,4.3c-9.7,6-16.8-0.2-20.3-3.1
		c-0.7-0.6-1.2-1.1-1.5-1.2c-1.9-0.8-9.6-1.7-11.5-1.7c-1.8,0-50.8-16.8-56.4-18.7l-0.3-0.1v-0.3c-0.7-6.6-1.7-7.4-1.9-7.5l-0.2,0.1
		l-0.2-0.3c-2.2-3.1-18.8-6.8-25.5-8.1c-2.9,12.2-8.1,18.4-8.4,18.7l-0.1,0.1h-0.2c-17.2,1-19.5,2.5-19.9,2.8l0.1,0.1l-0.1,0.3
		c-1.7,7.6-5,10.1-6.7,11l4.4,2.4C129.3,299.6,151.1,294.2,151.3,294.1z M155.3,276.2c0.4-1.1,1-1.8,1.9-2.2c2-0.9,4.7,0.2,4.8,0.3
		l0.2,0.1v0.2c0.1,1-0.2,1.7-0.8,2.2s-1.4,0.6-2.2,0.6c-1.6,0-3.4-0.6-3.7-0.7l-0.4-0.1L155.3,276.2z"/>
	<path class="st2" d="M425,266.2c-6.4,0.8-8.7,1.1-9.5,1c-1.8,0.7-10,5-18.2,23c0.2,0.7,1.9,4.1,9.9,4.6c0.3,0,5.2,0.8,7,2.8
		c2.9-3.1,23.3-24.9,25.5-30.7v-0.1l0.1-0.1c0.1-0.1,10.6-6.9,25.2-9.7c0,0,5.2-2.1,5.8-15.7c0.4-8.7,7.3-16.6,12.9-23
		c3.6-4.1,6.7-7.7,7.4-10.6c-0.4-1.2-3-10.1,2.9-13.4c1.3-0.7,4-2,7.4-3.6c11.5-5.5,35.2-16.6,37.3-22.5c-1.3-0.2-4.8-1.1-9.4-5.6
		c-3-2.9-6.6,0.2-10.4,3.5c-2.9,2.5-5.9,5-8.7,4.8c-6.1-0.4-10.6-2.6-17.2-8.2l-0.1-0.1c0,0-0.2-0.3-0.6-0.3c-0.8,0-2.6,0.6-6.2,5.4
		c-1.2,1.6-2.4,3.1-3.6,4.5c-4.7,5.7-8.8,10.7-5.5,15.2c4.5,6.2-5.5,15.8-5.9,16.2l-33.5,47.1C437.6,252.2,436.9,264.7,425,266.2z
		 M492.5,173.6c1.2-0.9,2.9-0.1,3,0l0.1,0.1l0.1,0.1c0.5,0.7,0.5,1.4,0.2,2c-0.7,1.5-3.6,1.9-3.9,2l-0.4,0.1l-0.1-0.4
		C491.4,175.5,491.7,174.2,492.5,173.6z"/>
	<path class="st2" d="M218.6,190.7c3.4,1.6,6.1,2.9,7.4,3.6c5.9,3.3,3.3,12.2,2.9,13.4c0.6,2.8,3.8,6.4,7.4,10.6
		c5.6,6.4,12.5,14.4,12.9,23c0.6,13.5,5.8,15.7,5.9,15.7c14.6,2.8,25.1,9.7,25.2,9.7l0.1,0.1v0.1c2.2,5.8,22.6,27.6,25.5,30.7
		c1.8-2,6.8-2.8,7-2.8c8-0.5,9.7-3.9,9.9-4.6c-8.2-18-16.4-22.3-18.2-23c-0.9,0.1-3.2-0.2-9.5-1c-11.9-1.5-12.6-14-12.7-15.5
		l-33.6-47.2c-0.4-0.3-10.3-9.9-5.8-16.1c3.2-4.5-0.8-9.5-5.5-15.2c-1.2-1.5-2.4-3-3.6-4.5c-3.6-4.8-5.4-5.4-6.2-5.4
		c-0.4,0-0.6,0.3-0.6,0.3l-0.1,0.1c-6.5,5.6-11,7.8-17.2,8.2c-2.8,0.2-5.8-2.3-8.7-4.8c-3.8-3.3-7.4-6.3-10.4-3.5
		c-4.6,4.4-8.1,5.4-9.4,5.6C183.4,174.1,207.1,185.3,218.6,190.7z M224.3,173.8l0.1-0.1l0.1-0.1c0.1,0,1.8-0.8,3,0
		c0.9,0.6,1.2,1.9,1,3.8l-0.1,0.4l-0.4-0.1c-0.3,0-3.2-0.4-3.9-2C223.7,175.2,223.8,174.5,224.3,173.8z"/>
	<path class="st2" d="M576.5,282.4l-0.1-0.1c-0.2-0.3-5.5-6.5-8.4-18.7c-8.1,1.6-23.3,5.1-25.5,8.1l-0.2,0.3l-0.2-0.1
		c-0.2,0.1-1.2,1-1.9,7.5v0.3l-0.3,0.1c-5.6,1.9-54.7,18.7-56.4,18.7c-1.9,0-9.6,0.9-11.5,1.7c-0.3,0.1-0.9,0.6-1.5,1.2
		c-3.4,3-10.6,9.1-20.2,3.2c-0.1-0.1-7.3-6.5-15.9-4.3c-7.5,1.8-12.6,4-14,4.6c1.3,2.3,7,12.9,7.3,17.7c3.3-0.7,20.7-4.5,23.2-4.1
		c2.1,0.3,9.1-2.6,11.6-3.7h0.2c0.5,0,11.4,0,14.8,3c3.2,2.7,13.5,5.5,17.5,3.5c1.1-1.1,20.2-19.4,44.2-21.6
		c0.6-1.3,3.4-7.1,7.7-8.7c1.7-0.7,3.4-0.6,5.1,0.2c7.1,3.2,16.6,3,16.7,3h0.1h0.1c0.2,0.1,22.1,5.4,30.1,4.8l4.4-2.4
		c-1.6-0.8-5-3.4-6.7-11l-0.1-0.3l0.1-0.1c-0.3-0.4-2.7-1.9-19.9-2.8L576.5,282.4z M564.5,276.8c-0.3,0.1-2,0.7-3.7,0.7
		c-0.8,0-1.6-0.2-2.2-0.6c-0.6-0.5-0.9-1.2-0.8-2.2v-0.2l0.2-0.1c0.1,0,2.7-1.2,4.8-0.3c0.9,0.4,1.6,1.1,1.9,2.2l0.1,0.4
		L564.5,276.8z"/>
	<path class="st2" d="M579.4,420.6c-0.7-2.6-4.4-7.9-22-15.4l-7.5,5.7l-0.2-0.1l-41-22.9c-0.7-0.3-17.5-8.2-20.2-11.6
		c-1.7-0.2-12.8-1.7-18.1-8.5c-2.3-2.9-3.2-6.4-2.6-10.4c-0.1-0.7-1.7-7.8-12.2-11.7c-9.5-3.5-19.4-9.7-22.4-11.7
		c1.4,4.9,7.5,24.5,16,30.8c1.9,1.4,3.6,2.7,5.1,3.8c6.6,5,10.5,7.9,16.5,9.5l0.2,0.1l0.1,0.2c4.6,10.5,12.8,27.4,15.5,27.7
		c0.6,0.1,1.7,0.1,3,0.1c6.9,0.2,21.2,0.5,32.1,8.1c10.4,7.2,14,9.1,15,9.5c0.5-0.9,2.1-3,4.6-3.2c2.6-0.2,5.4,1.7,8.3,5.7
		c7.6,10.6,25.1,37.3,26.1,38.9c0.2,0.2,1.6,0.9,5.1,1c-0.4-1.6-0.9-6.4,4.1-9.1c-0.1-1.2-1.1-7.1-12-19.5
		c-0.3-0.3-1.6-2.6,6.3-14.6C579.2,422.9,579.8,422.1,579.4,420.6z M569.5,424.6c-0.8,1-1.6,1.5-2.3,1.5c-0.2,0-0.3,0-0.5-0.1
		c-2-0.7-2.2-5.5-2.2-6.5v-0.4h0.4c0.5,0,4.6,0.1,5.5,2.1C570.9,422.1,570.6,423.3,569.5,424.6z"/>
	<path class="st2" d="M517.8,534.6l-0.2-0.1l-1.6-8.9l0.1-0.1c0.1-0.1,7.6-11.4,8.1-16.9c0.3-4.4-16.8-12.9-23.5-15.8l-0.1-0.1
		l-0.1-0.1L459,413.3c-29-12.9-18.9-41.3-18-43.8l-18.4-40.8c-6.5-26.9-19.3-28.3-19.4-28.3c-7.3-1.1-13.1-3.7-13.1-3.8l-0.1-0.1
		c-13.2-11.8-16.4-30.6-16.4-30.8v-0.2l0.2-0.2c13.8-13.1,11.8-30.5,11.7-30.6c0-12-3-20.9-9-26.3c-7.2-6.5-16.3-5.7-16.4-5.7l0,0
		l0,0c-0.1,0-9-0.8-16.2,5.6c-6,5.4-9,14.3-9,26.3c0,0.2-2,17.6,11.7,30.7l0.2,0.2v0.2c0,0.2-3.3,19-16.4,30.8l-0.1,0.1
		c-0.1,0-5.9,2.7-13.1,3.8c-0.2,0-13,1.5-19.4,28.3L279,369.4c1,2.5,11,30.9-18,43.8l-41.6,79.4l-0.1,0.1
		c-6.7,2.9-23.8,11.4-23.5,15.8c0.4,5.5,8,16.8,8.1,16.9l0.1,0.1l-1.6,8.9l-0.2,0.1c-5.2,3.2-18.2,12.3-16.5,16.2
		c0.3,0.7,0.7,1.1,1.2,1.3c1.3,0.4,3.3-0.7,5.2-1.7c2.1-1.2,4.1-2.3,5.5-1.5l0.3,0.2l-0.1,0.3c-0.4,1.8-1.2,6.4,0.2,7.9l34.1-40.2
		l0.3,0.3c0.3,0.2,30.6,23.9,36.6,25.4c0.6,0.2,1.3,0.3,1.9,0.5c5.6,1.5,11.9,3.2,24-2.5c3.4-1.6,6.8-3.4,10.5-5.4
		c11.3-6,22.9-12.3,34-11.6h0.4v0.4l-1.5,52.6H382l-1.5-53h0.4c11.1-0.7,22.7,5.6,34,11.6c3.6,2,7.1,3.8,10.5,5.4
		c12.1,5.7,18.4,4,24,2.5c0.6-0.2,1.3-0.3,1.9-0.5c6-1.5,36.3-25.2,36.6-25.4l0.3-0.3l34.1,40.2c1.4-1.5,0.6-6.1,0.2-7.9l-0.1-0.3
		l0.3-0.2c1.4-0.7,3.4,0.4,5.5,1.5c1.9,1.1,3.9,2.2,5.2,1.7c0.5-0.2,0.9-0.6,1.2-1.3C536,546.9,522.9,537.8,517.8,534.6z
		 M210.4,515.2c-0.1,0-0.2,0.1-0.4,0.1c-0.6,0-1.2-0.5-1.7-1.4c-0.6-1-0.7-1.8-0.3-2.5c0.8-1.3,3.3-1.1,3.6-1.1h0.3v0.3
		C212.1,512,211.7,514.8,210.4,515.2z M318.7,422.8h-6.5c-7.4-0.4-9.9,21.8-9.9,22v0.2l-48.6,26.8l34.7-62.7
		c-4.1-9.8,5.3-30,12.2-44.8c3.5-7.6,6.6-11.6,9.1-11.9c1.1-0.1,1.7,0.6,1.7,0.6l0.1,0.1v12.5c11.5,12.7,12.2,17.5,12,19l7.9,2.2
		L318.7,422.8z M335.2,424.7l-0.5,0.2l-0.1-0.5c-2.1-8,3.3-10.2,3.3-10.2l0.4-0.2l0.2,0.4C341.5,422,335.3,424.7,335.2,424.7z
		 M385.3,424.4l-0.1,0.5l-0.5-0.2c-0.1,0-6.3-2.7-3.3-10.2l0.2-0.4l0.4,0.2C382.1,414.3,387.4,416.4,385.3,424.4z M417.7,445v-0.2
		c0-0.2-2.4-22.1-9.7-22.1c-0.1,0-0.1,0-0.2,0h-6.5l-12.8-35.9l7.9-2.2c-0.2-1.5,0.5-6.3,12-19v-12.5l0.1-0.1c0,0,0.6-0.7,1.7-0.6
		c2.5,0.3,5.6,4.3,9.1,11.9c6.9,14.8,16.3,35,12.2,44.8l34.7,62.7L417.7,445z M511.7,513.8c-0.6,1-1.2,1.4-1.7,1.4
		c-0.1,0-0.2,0-0.4-0.1c-1.3-0.4-1.7-3.2-1.5-4.5v-0.4h0.4c0.3,0,2.8-0.2,3.6,1.1C512.4,512,512.3,512.8,511.7,513.8z"/>
	<circle class="st3" cx="159.4" cy="498.3" r="28.3"/>
	<circle class="st3" cx="120.2" cy="353.9" r="28.3"/>
	<path class="st3" d="M162.3,246.2c15.6,0,28.3-12.7,28.3-28.3c0-13.2-9-24.2-21.1-27.4c-1.8-0.8-3.9-1.3-6-1.3
		c-1.3,0-2.5,0.2-3.7,0.5c-14.4,1.3-25.7,13.4-25.7,28.2C134,233.5,146.6,246.2,162.3,246.2z"/>
	<circle class="st3" cx="295.5" cy="125.1" r="28.3"/>
	<circle class="st3" cx="558.6" cy="498.3" r="28.3"/>
	<circle class="st3" cx="597.8" cy="353.9" r="28.3"/>
	<path class="st3" d="M528.4,217.9c0,15.6,12.7,28.3,28.3,28.3s28.3-12.7,28.3-28.3c0-12.7-8.4-23.5-20-27.1c-2-1-4.3-1.6-6.7-1.6
		c-1.2,0-2.4,0.2-3.5,0.4C540.1,190.7,528.4,202.9,528.4,217.9z"/>
	<circle class="st3" cx="422.4" cy="125.1" r="28.3"/>
</g>
</svg>
